<mxfile host="app.diagrams.net" agent="Mozilla/5.0 (Windows NT 10.0; Win64; x64; rv:126.0) Gecko/20100101 Firefox/126.0" border="50" scale="3" compressed="false" locked="false" version="26.0.16">
  <diagram name="Blank" id="YmL12bMKpDGza6XwsDPr">
    <mxGraphModel dx="2440" dy="846" grid="0" gridSize="10" guides="1" tooltips="1" connect="1" arrows="1" fold="1" page="0" pageScale="1" pageWidth="827" pageHeight="1169" background="none" math="1" shadow="0">
      <root>
        <mxCell id="X5NqExCQtvZxIxQ7pmgY-0" />
        <mxCell id="1" parent="X5NqExCQtvZxIxQ7pmgY-0" />
        <mxCell id="bOhfW5nV4HzcesmKSZrR-1" value="&#xa;Безопасность данных&#xa;&#xa;" style="swimlane;startSize=20;horizontal=1;containerType=tree;" vertex="1" parent="1">
          <mxGeometry x="86" y="461" width="1938" height="1194" as="geometry" />
        </mxCell>
        <mxCell id="bOhfW5nV4HzcesmKSZrR-4" value="" style="edgeStyle=entityRelationEdgeStyle;startArrow=none;endArrow=none;segment=10;curved=1;sourcePerimeterSpacing=0;targetPerimeterSpacing=0;rounded=0;" edge="1" parent="bOhfW5nV4HzcesmKSZrR-1" source="bOhfW5nV4HzcesmKSZrR-6" target="bOhfW5nV4HzcesmKSZrR-9">
          <mxGeometry relative="1" as="geometry" />
        </mxCell>
        <mxCell id="bOhfW5nV4HzcesmKSZrR-6" value="Безопасность данных" style="ellipse;whiteSpace=wrap;html=1;align=center;treeFolding=1;treeMoving=1;newEdgeStyle={&quot;edgeStyle&quot;:&quot;entityRelationEdgeStyle&quot;,&quot;startArrow&quot;:&quot;none&quot;,&quot;endArrow&quot;:&quot;none&quot;,&quot;segment&quot;:10,&quot;curved&quot;:1,&quot;sourcePerimeterSpacing&quot;:0,&quot;targetPerimeterSpacing&quot;:0};" vertex="1" parent="bOhfW5nV4HzcesmKSZrR-1">
          <mxGeometry x="80" y="173" width="100" height="40" as="geometry" />
        </mxCell>
        <mxCell id="bOhfW5nV4HzcesmKSZrR-12" style="edgeStyle=entityRelationEdgeStyle;rounded=0;orthogonalLoop=1;jettySize=auto;html=1;startArrow=none;endArrow=none;segment=10;curved=1;sourcePerimeterSpacing=0;targetPerimeterSpacing=0;" edge="1" parent="bOhfW5nV4HzcesmKSZrR-1" source="bOhfW5nV4HzcesmKSZrR-11" target="bOhfW5nV4HzcesmKSZrR-6">
          <mxGeometry relative="1" as="geometry" />
        </mxCell>
        <mxCell id="bOhfW5nV4HzcesmKSZrR-9" value="Внутренние данные" style="whiteSpace=wrap;html=1;rounded=1;arcSize=50;align=center;verticalAlign=middle;strokeWidth=1;autosize=1;spacing=4;treeFolding=1;treeMoving=1;newEdgeStyle={&quot;edgeStyle&quot;:&quot;entityRelationEdgeStyle&quot;,&quot;startArrow&quot;:&quot;none&quot;,&quot;endArrow&quot;:&quot;none&quot;,&quot;segment&quot;:10,&quot;curved&quot;:1,&quot;sourcePerimeterSpacing&quot;:0,&quot;targetPerimeterSpacing&quot;:0};" vertex="1" parent="bOhfW5nV4HzcesmKSZrR-1">
          <mxGeometry x="247" y="797" width="151" height="30" as="geometry" />
        </mxCell>
        <mxCell id="bOhfW5nV4HzcesmKSZrR-11" value="Персональные данные" style="whiteSpace=wrap;html=1;rounded=1;arcSize=50;align=center;verticalAlign=middle;strokeWidth=1;autosize=1;spacing=4;treeFolding=1;treeMoving=1;newEdgeStyle={&quot;edgeStyle&quot;:&quot;entityRelationEdgeStyle&quot;,&quot;startArrow&quot;:&quot;none&quot;,&quot;endArrow&quot;:&quot;none&quot;,&quot;segment&quot;:10,&quot;curved&quot;:1,&quot;sourcePerimeterSpacing&quot;:0,&quot;targetPerimeterSpacing&quot;:0};" vertex="1" parent="bOhfW5nV4HzcesmKSZrR-1">
          <mxGeometry x="304" y="643" width="168" height="30" as="geometry" />
        </mxCell>
        <mxCell id="bOhfW5nV4HzcesmKSZrR-13" value="секретные данные" style="whiteSpace=wrap;html=1;rounded=1;arcSize=50;align=center;verticalAlign=middle;strokeWidth=1;autosize=1;spacing=4;treeFolding=1;treeMoving=1;newEdgeStyle={&quot;edgeStyle&quot;:&quot;entityRelationEdgeStyle&quot;,&quot;startArrow&quot;:&quot;none&quot;,&quot;endArrow&quot;:&quot;none&quot;,&quot;segment&quot;:10,&quot;curved&quot;:1,&quot;sourcePerimeterSpacing&quot;:0,&quot;targetPerimeterSpacing&quot;:0};" vertex="1" parent="bOhfW5nV4HzcesmKSZrR-1">
          <mxGeometry x="280.5" y="397" width="143" height="30" as="geometry" />
        </mxCell>
        <mxCell id="bOhfW5nV4HzcesmKSZrR-15" style="edgeStyle=entityRelationEdgeStyle;rounded=0;orthogonalLoop=1;jettySize=auto;html=1;startArrow=none;endArrow=none;segment=10;curved=1;sourcePerimeterSpacing=0;targetPerimeterSpacing=0;" edge="1" parent="bOhfW5nV4HzcesmKSZrR-1" source="bOhfW5nV4HzcesmKSZrR-13" target="bOhfW5nV4HzcesmKSZrR-6">
          <mxGeometry relative="1" as="geometry">
            <mxPoint x="239" y="341" as="sourcePoint" />
            <mxPoint x="190" y="203" as="targetPoint" />
          </mxGeometry>
        </mxCell>
        <mxCell id="bOhfW5nV4HzcesmKSZrR-16" value="Финансовые данные" style="whiteSpace=wrap;html=1;rounded=1;arcSize=50;align=center;verticalAlign=middle;strokeWidth=1;autosize=1;spacing=4;treeFolding=1;treeMoving=1;newEdgeStyle={&quot;edgeStyle&quot;:&quot;entityRelationEdgeStyle&quot;,&quot;startArrow&quot;:&quot;none&quot;,&quot;endArrow&quot;:&quot;none&quot;,&quot;segment&quot;:10,&quot;curved&quot;:1,&quot;sourcePerimeterSpacing&quot;:0,&quot;targetPerimeterSpacing&quot;:0};" vertex="1" parent="bOhfW5nV4HzcesmKSZrR-1">
          <mxGeometry x="241" y="52" width="155" height="30" as="geometry" />
        </mxCell>
        <mxCell id="bOhfW5nV4HzcesmKSZrR-17" value="" style="edgeStyle=entityRelationEdgeStyle;startArrow=none;endArrow=none;segment=10;curved=1;sourcePerimeterSpacing=0;targetPerimeterSpacing=0;rounded=0;" edge="1" parent="bOhfW5nV4HzcesmKSZrR-1" source="bOhfW5nV4HzcesmKSZrR-6" target="bOhfW5nV4HzcesmKSZrR-16">
          <mxGeometry relative="1" as="geometry">
            <mxPoint x="190" y="203" as="sourcePoint" />
            <mxPoint x="244" y="152" as="targetPoint" />
          </mxGeometry>
        </mxCell>
        <mxCell id="bOhfW5nV4HzcesmKSZrR-18" value="Данные платежей на комунальные услуги" style="whiteSpace=wrap;html=1;rounded=1;arcSize=50;align=center;verticalAlign=middle;strokeWidth=1;autosize=1;spacing=4;treeFolding=1;treeMoving=1;newEdgeStyle={&quot;edgeStyle&quot;:&quot;entityRelationEdgeStyle&quot;,&quot;startArrow&quot;:&quot;none&quot;,&quot;endArrow&quot;:&quot;none&quot;,&quot;segment&quot;:10,&quot;curved&quot;:1,&quot;sourcePerimeterSpacing&quot;:0,&quot;targetPerimeterSpacing&quot;:0};" vertex="1" parent="bOhfW5nV4HzcesmKSZrR-1">
          <mxGeometry x="592" y="50" width="273" height="30" as="geometry" />
        </mxCell>
        <mxCell id="bOhfW5nV4HzcesmKSZrR-19" value="" style="edgeStyle=entityRelationEdgeStyle;startArrow=none;endArrow=none;segment=10;curved=1;sourcePerimeterSpacing=0;targetPerimeterSpacing=0;rounded=0;" edge="1" parent="bOhfW5nV4HzcesmKSZrR-1" source="bOhfW5nV4HzcesmKSZrR-16" target="bOhfW5nV4HzcesmKSZrR-18">
          <mxGeometry relative="1" as="geometry">
            <mxPoint x="190" y="203" as="sourcePoint" />
            <mxPoint x="251" y="77" as="targetPoint" />
          </mxGeometry>
        </mxCell>
        <mxCell id="bOhfW5nV4HzcesmKSZrR-75" style="edgeStyle=entityRelationEdgeStyle;rounded=0;orthogonalLoop=1;jettySize=auto;html=1;startArrow=none;endArrow=none;segment=10;curved=1;sourcePerimeterSpacing=0;targetPerimeterSpacing=0;" edge="1" parent="bOhfW5nV4HzcesmKSZrR-1" source="bOhfW5nV4HzcesmKSZrR-20" target="bOhfW5nV4HzcesmKSZrR-69">
          <mxGeometry relative="1" as="geometry" />
        </mxCell>
        <mxCell id="bOhfW5nV4HzcesmKSZrR-20" value="расчеты при покупке недвижимости" style="whiteSpace=wrap;html=1;rounded=1;arcSize=50;align=center;verticalAlign=middle;strokeWidth=1;autosize=1;spacing=4;treeFolding=1;treeMoving=1;newEdgeStyle={&quot;edgeStyle&quot;:&quot;entityRelationEdgeStyle&quot;,&quot;startArrow&quot;:&quot;none&quot;,&quot;endArrow&quot;:&quot;none&quot;,&quot;segment&quot;:10,&quot;curved&quot;:1,&quot;sourcePerimeterSpacing&quot;:0,&quot;targetPerimeterSpacing&quot;:0};" vertex="1" parent="bOhfW5nV4HzcesmKSZrR-1">
          <mxGeometry x="592" y="105" width="239" height="30" as="geometry" />
        </mxCell>
        <mxCell id="bOhfW5nV4HzcesmKSZrR-21" value="" style="edgeStyle=entityRelationEdgeStyle;startArrow=none;endArrow=none;segment=10;curved=1;sourcePerimeterSpacing=0;targetPerimeterSpacing=0;rounded=0;" edge="1" parent="bOhfW5nV4HzcesmKSZrR-1" source="bOhfW5nV4HzcesmKSZrR-16" target="bOhfW5nV4HzcesmKSZrR-20">
          <mxGeometry relative="1" as="geometry">
            <mxPoint x="406" y="77" as="sourcePoint" />
            <mxPoint x="495" y="75" as="targetPoint" />
          </mxGeometry>
        </mxCell>
        <mxCell id="bOhfW5nV4HzcesmKSZrR-76" style="edgeStyle=entityRelationEdgeStyle;rounded=0;orthogonalLoop=1;jettySize=auto;html=1;startArrow=none;endArrow=none;segment=10;curved=1;sourcePerimeterSpacing=0;targetPerimeterSpacing=0;" edge="1" parent="bOhfW5nV4HzcesmKSZrR-1" source="bOhfW5nV4HzcesmKSZrR-23" target="bOhfW5nV4HzcesmKSZrR-77">
          <mxGeometry relative="1" as="geometry">
            <mxPoint x="1006.8571428571431" y="188.57142857142867" as="targetPoint" />
          </mxGeometry>
        </mxCell>
        <mxCell id="bOhfW5nV4HzcesmKSZrR-23" value="Паспортные данные" style="whiteSpace=wrap;html=1;rounded=1;arcSize=50;align=center;verticalAlign=middle;strokeWidth=1;autosize=1;spacing=4;treeFolding=1;treeMoving=1;newEdgeStyle={&quot;edgeStyle&quot;:&quot;entityRelationEdgeStyle&quot;,&quot;startArrow&quot;:&quot;none&quot;,&quot;endArrow&quot;:&quot;none&quot;,&quot;segment&quot;:10,&quot;curved&quot;:1,&quot;sourcePerimeterSpacing&quot;:0,&quot;targetPerimeterSpacing&quot;:0};" vertex="1" parent="bOhfW5nV4HzcesmKSZrR-1">
          <mxGeometry x="592" y="640" width="153" height="30" as="geometry" />
        </mxCell>
        <mxCell id="bOhfW5nV4HzcesmKSZrR-22" value="" style="edgeStyle=entityRelationEdgeStyle;startArrow=none;endArrow=none;segment=10;curved=1;sourcePerimeterSpacing=0;targetPerimeterSpacing=0;rounded=0;" edge="1" parent="bOhfW5nV4HzcesmKSZrR-1" source="bOhfW5nV4HzcesmKSZrR-11" target="bOhfW5nV4HzcesmKSZrR-23">
          <mxGeometry relative="1" as="geometry">
            <mxPoint x="406" y="77" as="sourcePoint" />
            <mxPoint x="602" y="130" as="targetPoint" />
          </mxGeometry>
        </mxCell>
        <mxCell id="bOhfW5nV4HzcesmKSZrR-78" style="edgeStyle=entityRelationEdgeStyle;rounded=0;orthogonalLoop=1;jettySize=auto;html=1;startArrow=none;endArrow=none;segment=10;curved=1;sourcePerimeterSpacing=0;targetPerimeterSpacing=0;" edge="1" parent="bOhfW5nV4HzcesmKSZrR-1" source="bOhfW5nV4HzcesmKSZrR-24" target="bOhfW5nV4HzcesmKSZrR-69">
          <mxGeometry relative="1" as="geometry" />
        </mxCell>
        <mxCell id="bOhfW5nV4HzcesmKSZrR-24" value="данных с датчиков" style="whiteSpace=wrap;html=1;rounded=1;arcSize=50;align=center;verticalAlign=middle;strokeWidth=1;autosize=1;spacing=4;treeFolding=1;treeMoving=1;newEdgeStyle={&quot;edgeStyle&quot;:&quot;entityRelationEdgeStyle&quot;,&quot;startArrow&quot;:&quot;none&quot;,&quot;endArrow&quot;:&quot;none&quot;,&quot;segment&quot;:10,&quot;curved&quot;:1,&quot;sourcePerimeterSpacing&quot;:0,&quot;targetPerimeterSpacing&quot;:0};" vertex="1" parent="bOhfW5nV4HzcesmKSZrR-1">
          <mxGeometry x="597" y="222" width="144" height="30" as="geometry" />
        </mxCell>
        <mxCell id="bOhfW5nV4HzcesmKSZrR-25" value="" style="edgeStyle=entityRelationEdgeStyle;startArrow=none;endArrow=none;segment=10;curved=1;sourcePerimeterSpacing=0;targetPerimeterSpacing=0;rounded=0;" edge="1" parent="bOhfW5nV4HzcesmKSZrR-1" source="bOhfW5nV4HzcesmKSZrR-13" target="bOhfW5nV4HzcesmKSZrR-24">
          <mxGeometry relative="1" as="geometry">
            <mxPoint x="395" y="152" as="sourcePoint" />
            <mxPoint x="620" y="168" as="targetPoint" />
          </mxGeometry>
        </mxCell>
        <mxCell id="bOhfW5nV4HzcesmKSZrR-80" style="edgeStyle=entityRelationEdgeStyle;rounded=0;orthogonalLoop=1;jettySize=auto;html=1;startArrow=none;endArrow=none;segment=10;curved=1;sourcePerimeterSpacing=0;targetPerimeterSpacing=0;" edge="1" parent="bOhfW5nV4HzcesmKSZrR-1" source="bOhfW5nV4HzcesmKSZrR-26" target="bOhfW5nV4HzcesmKSZrR-69">
          <mxGeometry relative="1" as="geometry" />
        </mxCell>
        <mxCell id="bOhfW5nV4HzcesmKSZrR-26" value="логины и пароли" style="whiteSpace=wrap;html=1;rounded=1;arcSize=50;align=center;verticalAlign=middle;strokeWidth=1;autosize=1;spacing=4;treeFolding=1;treeMoving=1;newEdgeStyle={&quot;edgeStyle&quot;:&quot;entityRelationEdgeStyle&quot;,&quot;startArrow&quot;:&quot;none&quot;,&quot;endArrow&quot;:&quot;none&quot;,&quot;segment&quot;:10,&quot;curved&quot;:1,&quot;sourcePerimeterSpacing&quot;:0,&quot;targetPerimeterSpacing&quot;:0};" vertex="1" parent="bOhfW5nV4HzcesmKSZrR-1">
          <mxGeometry x="600" y="348" width="132" height="30" as="geometry" />
        </mxCell>
        <mxCell id="bOhfW5nV4HzcesmKSZrR-27" value="" style="edgeStyle=entityRelationEdgeStyle;startArrow=none;endArrow=none;segment=10;curved=1;sourcePerimeterSpacing=0;targetPerimeterSpacing=0;rounded=0;" edge="1" parent="bOhfW5nV4HzcesmKSZrR-1" source="bOhfW5nV4HzcesmKSZrR-13" target="bOhfW5nV4HzcesmKSZrR-26">
          <mxGeometry relative="1" as="geometry">
            <mxPoint x="394" y="247" as="sourcePoint" />
            <mxPoint x="607" y="247" as="targetPoint" />
          </mxGeometry>
        </mxCell>
        <mxCell id="bOhfW5nV4HzcesmKSZrR-81" style="edgeStyle=entityRelationEdgeStyle;rounded=0;orthogonalLoop=1;jettySize=auto;html=1;startArrow=none;endArrow=none;segment=10;curved=1;sourcePerimeterSpacing=0;targetPerimeterSpacing=0;" edge="1" parent="bOhfW5nV4HzcesmKSZrR-1" source="bOhfW5nV4HzcesmKSZrR-30" target="bOhfW5nV4HzcesmKSZrR-69">
          <mxGeometry relative="1" as="geometry" />
        </mxCell>
        <mxCell id="bOhfW5nV4HzcesmKSZrR-30" value="журналы логирования" style="whiteSpace=wrap;html=1;rounded=1;arcSize=50;align=center;verticalAlign=middle;strokeWidth=1;autosize=1;spacing=4;treeFolding=1;treeMoving=1;newEdgeStyle={&quot;edgeStyle&quot;:&quot;entityRelationEdgeStyle&quot;,&quot;startArrow&quot;:&quot;none&quot;,&quot;endArrow&quot;:&quot;none&quot;,&quot;segment&quot;:10,&quot;curved&quot;:1,&quot;sourcePerimeterSpacing&quot;:0,&quot;targetPerimeterSpacing&quot;:0};" vertex="1" parent="bOhfW5nV4HzcesmKSZrR-1">
          <mxGeometry x="588" y="416" width="163" height="30" as="geometry" />
        </mxCell>
        <mxCell id="bOhfW5nV4HzcesmKSZrR-31" value="" style="edgeStyle=entityRelationEdgeStyle;startArrow=none;endArrow=none;segment=10;curved=1;sourcePerimeterSpacing=0;targetPerimeterSpacing=0;rounded=0;" edge="1" parent="bOhfW5nV4HzcesmKSZrR-1" source="bOhfW5nV4HzcesmKSZrR-13" target="bOhfW5nV4HzcesmKSZrR-30">
          <mxGeometry relative="1" as="geometry">
            <mxPoint x="394" y="247" as="sourcePoint" />
            <mxPoint x="610" y="373" as="targetPoint" />
          </mxGeometry>
        </mxCell>
        <mxCell id="bOhfW5nV4HzcesmKSZrR-82" style="edgeStyle=entityRelationEdgeStyle;rounded=0;orthogonalLoop=1;jettySize=auto;html=1;startArrow=none;endArrow=none;segment=10;curved=1;sourcePerimeterSpacing=0;targetPerimeterSpacing=0;" edge="1" parent="bOhfW5nV4HzcesmKSZrR-1" source="bOhfW5nV4HzcesmKSZrR-54" target="bOhfW5nV4HzcesmKSZrR-69">
          <mxGeometry relative="1" as="geometry" />
        </mxCell>
        <mxCell id="bOhfW5nV4HzcesmKSZrR-54" value="данные о конфигурациях оборудования" style="whiteSpace=wrap;html=1;rounded=1;arcSize=50;align=center;verticalAlign=middle;strokeWidth=1;autosize=1;spacing=4;treeFolding=1;treeMoving=1;newEdgeStyle={&quot;edgeStyle&quot;:&quot;entityRelationEdgeStyle&quot;,&quot;startArrow&quot;:&quot;none&quot;,&quot;endArrow&quot;:&quot;none&quot;,&quot;segment&quot;:10,&quot;curved&quot;:1,&quot;sourcePerimeterSpacing&quot;:0,&quot;targetPerimeterSpacing&quot;:0};" vertex="1" parent="bOhfW5nV4HzcesmKSZrR-1">
          <mxGeometry x="543" y="492" width="262" height="30" as="geometry" />
        </mxCell>
        <mxCell id="bOhfW5nV4HzcesmKSZrR-55" value="" style="edgeStyle=entityRelationEdgeStyle;startArrow=none;endArrow=none;segment=10;curved=1;sourcePerimeterSpacing=0;targetPerimeterSpacing=0;rounded=0;" edge="1" parent="bOhfW5nV4HzcesmKSZrR-1" source="bOhfW5nV4HzcesmKSZrR-13" target="bOhfW5nV4HzcesmKSZrR-54">
          <mxGeometry relative="1" as="geometry">
            <mxPoint x="394" y="247" as="sourcePoint" />
            <mxPoint x="598" y="441" as="targetPoint" />
          </mxGeometry>
        </mxCell>
        <mxCell id="bOhfW5nV4HzcesmKSZrR-83" style="edgeStyle=entityRelationEdgeStyle;rounded=0;orthogonalLoop=1;jettySize=auto;html=1;startArrow=none;endArrow=none;segment=10;curved=1;sourcePerimeterSpacing=0;targetPerimeterSpacing=0;" edge="1" parent="bOhfW5nV4HzcesmKSZrR-1" source="bOhfW5nV4HzcesmKSZrR-56" target="bOhfW5nV4HzcesmKSZrR-69">
          <mxGeometry relative="1" as="geometry">
            <mxPoint x="1293" y="350" as="targetPoint" />
          </mxGeometry>
        </mxCell>
        <mxCell id="bOhfW5nV4HzcesmKSZrR-56" value="информация о сетевой инфраструктуре" style="whiteSpace=wrap;html=1;rounded=1;arcSize=50;align=center;verticalAlign=middle;strokeWidth=1;autosize=1;spacing=4;treeFolding=1;treeMoving=1;newEdgeStyle={&quot;edgeStyle&quot;:&quot;entityRelationEdgeStyle&quot;,&quot;startArrow&quot;:&quot;none&quot;,&quot;endArrow&quot;:&quot;none&quot;,&quot;segment&quot;:10,&quot;curved&quot;:1,&quot;sourcePerimeterSpacing&quot;:0,&quot;targetPerimeterSpacing&quot;:0};" vertex="1" parent="bOhfW5nV4HzcesmKSZrR-1">
          <mxGeometry x="535" y="578" width="262" height="30" as="geometry" />
        </mxCell>
        <mxCell id="bOhfW5nV4HzcesmKSZrR-57" value="" style="edgeStyle=entityRelationEdgeStyle;startArrow=none;endArrow=none;segment=10;curved=1;sourcePerimeterSpacing=0;targetPerimeterSpacing=0;rounded=0;" edge="1" parent="bOhfW5nV4HzcesmKSZrR-1" source="bOhfW5nV4HzcesmKSZrR-13" target="bOhfW5nV4HzcesmKSZrR-56">
          <mxGeometry relative="1" as="geometry">
            <mxPoint x="394" y="247" as="sourcePoint" />
            <mxPoint x="553" y="517" as="targetPoint" />
          </mxGeometry>
        </mxCell>
        <mxCell id="bOhfW5nV4HzcesmKSZrR-89" style="edgeStyle=entityRelationEdgeStyle;rounded=0;orthogonalLoop=1;jettySize=auto;html=1;startArrow=none;endArrow=none;segment=10;curved=1;sourcePerimeterSpacing=0;targetPerimeterSpacing=0;" edge="1" parent="bOhfW5nV4HzcesmKSZrR-1" source="bOhfW5nV4HzcesmKSZrR-59" target="bOhfW5nV4HzcesmKSZrR-85">
          <mxGeometry relative="1" as="geometry" />
        </mxCell>
        <mxCell id="bOhfW5nV4HzcesmKSZrR-59" value="Данные о работах провходимых управляющей компанией" style="whiteSpace=wrap;html=1;rounded=1;arcSize=50;align=center;verticalAlign=middle;strokeWidth=1;autosize=1;spacing=4;treeFolding=1;treeMoving=1;newEdgeStyle={&quot;edgeStyle&quot;:&quot;entityRelationEdgeStyle&quot;,&quot;startArrow&quot;:&quot;none&quot;,&quot;endArrow&quot;:&quot;none&quot;,&quot;segment&quot;:10,&quot;curved&quot;:1,&quot;sourcePerimeterSpacing&quot;:0,&quot;targetPerimeterSpacing&quot;:0};" vertex="1" parent="bOhfW5nV4HzcesmKSZrR-1">
          <mxGeometry x="547" y="998" width="363" height="30" as="geometry" />
        </mxCell>
        <mxCell id="bOhfW5nV4HzcesmKSZrR-58" value="" style="edgeStyle=entityRelationEdgeStyle;startArrow=none;endArrow=none;segment=10;curved=1;sourcePerimeterSpacing=0;targetPerimeterSpacing=0;rounded=0;" edge="1" parent="bOhfW5nV4HzcesmKSZrR-1" source="bOhfW5nV4HzcesmKSZrR-9" target="bOhfW5nV4HzcesmKSZrR-59">
          <mxGeometry relative="1" as="geometry">
            <mxPoint x="190" y="203" as="sourcePoint" />
            <mxPoint x="356" y="458" as="targetPoint" />
          </mxGeometry>
        </mxCell>
        <mxCell id="bOhfW5nV4HzcesmKSZrR-86" style="edgeStyle=entityRelationEdgeStyle;rounded=0;orthogonalLoop=1;jettySize=auto;html=1;startArrow=none;endArrow=none;segment=10;curved=1;sourcePerimeterSpacing=0;targetPerimeterSpacing=0;" edge="1" parent="bOhfW5nV4HzcesmKSZrR-1" source="bOhfW5nV4HzcesmKSZrR-62" target="bOhfW5nV4HzcesmKSZrR-85">
          <mxGeometry relative="1" as="geometry" />
        </mxCell>
        <mxCell id="bOhfW5nV4HzcesmKSZrR-62" value="Данные о потребляемых ресурсах собственниками" style="whiteSpace=wrap;html=1;rounded=1;arcSize=50;align=center;verticalAlign=middle;strokeWidth=1;autosize=1;spacing=4;treeFolding=1;treeMoving=1;newEdgeStyle={&quot;edgeStyle&quot;:&quot;entityRelationEdgeStyle&quot;,&quot;startArrow&quot;:&quot;none&quot;,&quot;endArrow&quot;:&quot;none&quot;,&quot;segment&quot;:10,&quot;curved&quot;:1,&quot;sourcePerimeterSpacing&quot;:0,&quot;targetPerimeterSpacing&quot;:0};" vertex="1" parent="bOhfW5nV4HzcesmKSZrR-1">
          <mxGeometry x="592" y="790" width="325" height="30" as="geometry" />
        </mxCell>
        <mxCell id="bOhfW5nV4HzcesmKSZrR-63" value="" style="edgeStyle=entityRelationEdgeStyle;startArrow=none;endArrow=none;segment=10;curved=1;sourcePerimeterSpacing=0;targetPerimeterSpacing=0;rounded=0;" edge="1" parent="bOhfW5nV4HzcesmKSZrR-1" target="bOhfW5nV4HzcesmKSZrR-62" source="bOhfW5nV4HzcesmKSZrR-9">
          <mxGeometry relative="1" as="geometry">
            <mxPoint x="408" y="822" as="sourcePoint" />
            <mxPoint x="366" y="468" as="targetPoint" />
          </mxGeometry>
        </mxCell>
        <mxCell id="bOhfW5nV4HzcesmKSZrR-87" style="edgeStyle=entityRelationEdgeStyle;rounded=0;orthogonalLoop=1;jettySize=auto;html=1;startArrow=none;endArrow=none;segment=10;curved=1;sourcePerimeterSpacing=0;targetPerimeterSpacing=0;" edge="1" parent="bOhfW5nV4HzcesmKSZrR-1" source="bOhfW5nV4HzcesmKSZrR-67" target="bOhfW5nV4HzcesmKSZrR-85">
          <mxGeometry relative="1" as="geometry" />
        </mxCell>
        <mxCell id="bOhfW5nV4HzcesmKSZrR-67" value="сферические фоторграфии" style="whiteSpace=wrap;html=1;rounded=1;arcSize=50;align=center;verticalAlign=middle;strokeWidth=1;autosize=1;spacing=4;treeFolding=1;treeMoving=1;newEdgeStyle={&quot;edgeStyle&quot;:&quot;entityRelationEdgeStyle&quot;,&quot;startArrow&quot;:&quot;none&quot;,&quot;endArrow&quot;:&quot;none&quot;,&quot;segment&quot;:10,&quot;curved&quot;:1,&quot;sourcePerimeterSpacing&quot;:0,&quot;targetPerimeterSpacing&quot;:0};" vertex="1" parent="bOhfW5nV4HzcesmKSZrR-1">
          <mxGeometry x="714" y="855" width="192" height="30" as="geometry" />
        </mxCell>
        <mxCell id="bOhfW5nV4HzcesmKSZrR-68" value="" style="edgeStyle=entityRelationEdgeStyle;startArrow=none;endArrow=none;segment=10;curved=1;sourcePerimeterSpacing=0;targetPerimeterSpacing=0;rounded=0;" edge="1" parent="bOhfW5nV4HzcesmKSZrR-1" target="bOhfW5nV4HzcesmKSZrR-67" source="bOhfW5nV4HzcesmKSZrR-9">
          <mxGeometry relative="1" as="geometry">
            <mxPoint x="408" y="822" as="sourcePoint" />
            <mxPoint x="376" y="478" as="targetPoint" />
          </mxGeometry>
        </mxCell>
        <mxCell id="bOhfW5nV4HzcesmKSZrR-93" style="edgeStyle=entityRelationEdgeStyle;rounded=0;orthogonalLoop=1;jettySize=auto;html=1;startArrow=none;endArrow=none;segment=10;curved=1;sourcePerimeterSpacing=0;targetPerimeterSpacing=0;" edge="1" parent="bOhfW5nV4HzcesmKSZrR-1" source="bOhfW5nV4HzcesmKSZrR-69" target="bOhfW5nV4HzcesmKSZrR-91">
          <mxGeometry relative="1" as="geometry" />
        </mxCell>
        <mxCell id="bOhfW5nV4HzcesmKSZrR-69" value="критический" style="whiteSpace=wrap;html=1;rounded=1;arcSize=50;align=center;verticalAlign=middle;strokeWidth=1;autosize=1;spacing=4;treeFolding=1;treeMoving=1;newEdgeStyle={&quot;edgeStyle&quot;:&quot;entityRelationEdgeStyle&quot;,&quot;startArrow&quot;:&quot;none&quot;,&quot;endArrow&quot;:&quot;none&quot;,&quot;segment&quot;:10,&quot;curved&quot;:1,&quot;sourcePerimeterSpacing&quot;:0,&quot;targetPerimeterSpacing&quot;:0};" vertex="1" parent="bOhfW5nV4HzcesmKSZrR-1">
          <mxGeometry x="1228" y="178" width="107" height="30" as="geometry" />
        </mxCell>
        <mxCell id="bOhfW5nV4HzcesmKSZrR-70" value="" style="edgeStyle=entityRelationEdgeStyle;startArrow=none;endArrow=none;segment=10;curved=1;sourcePerimeterSpacing=0;targetPerimeterSpacing=0;rounded=0;" edge="1" parent="bOhfW5nV4HzcesmKSZrR-1" source="bOhfW5nV4HzcesmKSZrR-18" target="bOhfW5nV4HzcesmKSZrR-69">
          <mxGeometry relative="1" as="geometry">
            <mxPoint x="716" y="64" as="sourcePoint" />
            <mxPoint x="602" y="75" as="targetPoint" />
          </mxGeometry>
        </mxCell>
        <mxCell id="bOhfW5nV4HzcesmKSZrR-95" style="edgeStyle=entityRelationEdgeStyle;rounded=0;orthogonalLoop=1;jettySize=auto;html=1;startArrow=none;endArrow=none;segment=10;curved=1;sourcePerimeterSpacing=0;targetPerimeterSpacing=0;" edge="1" parent="bOhfW5nV4HzcesmKSZrR-1" source="bOhfW5nV4HzcesmKSZrR-77" target="bOhfW5nV4HzcesmKSZrR-94">
          <mxGeometry relative="1" as="geometry" />
        </mxCell>
        <mxCell id="bOhfW5nV4HzcesmKSZrR-77" value="значительный" style="whiteSpace=wrap;html=1;rounded=1;arcSize=50;align=center;verticalAlign=middle;strokeWidth=1;autosize=1;spacing=4;treeFolding=1;treeMoving=1;newEdgeStyle={&quot;edgeStyle&quot;:&quot;entityRelationEdgeStyle&quot;,&quot;startArrow&quot;:&quot;none&quot;,&quot;endArrow&quot;:&quot;none&quot;,&quot;segment&quot;:10,&quot;curved&quot;:1,&quot;sourcePerimeterSpacing&quot;:0,&quot;targetPerimeterSpacing&quot;:0};" vertex="1" parent="bOhfW5nV4HzcesmKSZrR-1">
          <mxGeometry x="1237" y="559" width="117" height="30" as="geometry" />
        </mxCell>
        <mxCell id="bOhfW5nV4HzcesmKSZrR-79" style="edgeStyle=entityRelationEdgeStyle;rounded=0;orthogonalLoop=1;jettySize=auto;html=1;startArrow=none;endArrow=none;segment=10;curved=1;sourcePerimeterSpacing=0;targetPerimeterSpacing=0;" edge="1" parent="bOhfW5nV4HzcesmKSZrR-1" source="bOhfW5nV4HzcesmKSZrR-28" target="bOhfW5nV4HzcesmKSZrR-69">
          <mxGeometry relative="1" as="geometry" />
        </mxCell>
        <mxCell id="bOhfW5nV4HzcesmKSZrR-28" value="Резервные копии" style="whiteSpace=wrap;html=1;rounded=1;arcSize=50;align=center;verticalAlign=middle;strokeWidth=1;autosize=1;spacing=4;treeFolding=1;treeMoving=1;newEdgeStyle={&quot;edgeStyle&quot;:&quot;entityRelationEdgeStyle&quot;,&quot;startArrow&quot;:&quot;none&quot;,&quot;endArrow&quot;:&quot;none&quot;,&quot;segment&quot;:10,&quot;curved&quot;:1,&quot;sourcePerimeterSpacing&quot;:0,&quot;targetPerimeterSpacing&quot;:0};" vertex="1" parent="bOhfW5nV4HzcesmKSZrR-1">
          <mxGeometry x="606.5" y="285" width="135" height="30" as="geometry" />
        </mxCell>
        <mxCell id="bOhfW5nV4HzcesmKSZrR-29" value="" style="edgeStyle=entityRelationEdgeStyle;startArrow=none;endArrow=none;segment=10;curved=1;sourcePerimeterSpacing=0;targetPerimeterSpacing=0;rounded=0;" edge="1" parent="bOhfW5nV4HzcesmKSZrR-1" source="bOhfW5nV4HzcesmKSZrR-13" target="bOhfW5nV4HzcesmKSZrR-28">
          <mxGeometry relative="1" as="geometry">
            <mxPoint x="395" y="213" as="sourcePoint" />
            <mxPoint x="611" y="339" as="targetPoint" />
          </mxGeometry>
        </mxCell>
        <mxCell id="bOhfW5nV4HzcesmKSZrR-84" style="edgeStyle=entityRelationEdgeStyle;rounded=0;orthogonalLoop=1;jettySize=auto;html=1;startArrow=none;endArrow=none;segment=10;curved=1;sourcePerimeterSpacing=0;targetPerimeterSpacing=0;" edge="1" parent="bOhfW5nV4HzcesmKSZrR-1" source="bOhfW5nV4HzcesmKSZrR-60" target="bOhfW5nV4HzcesmKSZrR-77">
          <mxGeometry relative="1" as="geometry" />
        </mxCell>
        <mxCell id="bOhfW5nV4HzcesmKSZrR-60" value="Информация об управляющей компании" style="whiteSpace=wrap;html=1;rounded=1;arcSize=50;align=center;verticalAlign=middle;strokeWidth=1;autosize=1;spacing=4;treeFolding=1;treeMoving=1;newEdgeStyle={&quot;edgeStyle&quot;:&quot;entityRelationEdgeStyle&quot;,&quot;startArrow&quot;:&quot;none&quot;,&quot;endArrow&quot;:&quot;none&quot;,&quot;segment&quot;:10,&quot;curved&quot;:1,&quot;sourcePerimeterSpacing&quot;:0,&quot;targetPerimeterSpacing&quot;:0};" vertex="1" parent="bOhfW5nV4HzcesmKSZrR-1">
          <mxGeometry x="564" y="703" width="267" height="30" as="geometry" />
        </mxCell>
        <mxCell id="bOhfW5nV4HzcesmKSZrR-61" value="" style="edgeStyle=entityRelationEdgeStyle;startArrow=none;endArrow=none;segment=10;curved=1;sourcePerimeterSpacing=0;targetPerimeterSpacing=0;rounded=0;" edge="1" parent="bOhfW5nV4HzcesmKSZrR-1" source="bOhfW5nV4HzcesmKSZrR-9" target="bOhfW5nV4HzcesmKSZrR-60">
          <mxGeometry relative="1" as="geometry">
            <mxPoint x="409" y="788" as="sourcePoint" />
            <mxPoint x="544" y="792" as="targetPoint" />
          </mxGeometry>
        </mxCell>
        <mxCell id="bOhfW5nV4HzcesmKSZrR-88" style="edgeStyle=entityRelationEdgeStyle;rounded=0;orthogonalLoop=1;jettySize=auto;html=1;startArrow=none;endArrow=none;segment=10;curved=1;sourcePerimeterSpacing=0;targetPerimeterSpacing=0;" edge="1" parent="bOhfW5nV4HzcesmKSZrR-1" source="bOhfW5nV4HzcesmKSZrR-65" target="bOhfW5nV4HzcesmKSZrR-85">
          <mxGeometry relative="1" as="geometry" />
        </mxCell>
        <mxCell id="bOhfW5nV4HzcesmKSZrR-65" value="планировка" style="whiteSpace=wrap;html=1;rounded=1;arcSize=50;align=center;verticalAlign=middle;strokeWidth=1;autosize=1;spacing=4;treeFolding=1;treeMoving=1;newEdgeStyle={&quot;edgeStyle&quot;:&quot;entityRelationEdgeStyle&quot;,&quot;startArrow&quot;:&quot;none&quot;,&quot;endArrow&quot;:&quot;none&quot;,&quot;segment&quot;:10,&quot;curved&quot;:1,&quot;sourcePerimeterSpacing&quot;:0,&quot;targetPerimeterSpacing&quot;:0};" vertex="1" parent="bOhfW5nV4HzcesmKSZrR-1">
          <mxGeometry x="654" y="937" width="104" height="30" as="geometry" />
        </mxCell>
        <mxCell id="bOhfW5nV4HzcesmKSZrR-66" value="" style="edgeStyle=entityRelationEdgeStyle;startArrow=none;endArrow=none;segment=10;curved=1;sourcePerimeterSpacing=0;targetPerimeterSpacing=0;rounded=0;" edge="1" parent="bOhfW5nV4HzcesmKSZrR-1" target="bOhfW5nV4HzcesmKSZrR-65" source="bOhfW5nV4HzcesmKSZrR-9">
          <mxGeometry relative="1" as="geometry">
            <mxPoint x="409" y="788" as="sourcePoint" />
            <mxPoint x="367" y="434" as="targetPoint" />
          </mxGeometry>
        </mxCell>
        <mxCell id="bOhfW5nV4HzcesmKSZrR-97" style="edgeStyle=entityRelationEdgeStyle;rounded=0;orthogonalLoop=1;jettySize=auto;html=1;startArrow=none;endArrow=none;segment=10;curved=1;sourcePerimeterSpacing=0;targetPerimeterSpacing=0;" edge="1" parent="bOhfW5nV4HzcesmKSZrR-1" source="bOhfW5nV4HzcesmKSZrR-85" target="bOhfW5nV4HzcesmKSZrR-96">
          <mxGeometry relative="1" as="geometry" />
        </mxCell>
        <mxCell id="bOhfW5nV4HzcesmKSZrR-85" value="незначительный" style="whiteSpace=wrap;html=1;rounded=1;arcSize=50;align=center;verticalAlign=middle;strokeWidth=1;autosize=1;spacing=4;treeFolding=1;treeMoving=1;newEdgeStyle={&quot;edgeStyle&quot;:&quot;entityRelationEdgeStyle&quot;,&quot;startArrow&quot;:&quot;none&quot;,&quot;endArrow&quot;:&quot;none&quot;,&quot;segment&quot;:10,&quot;curved&quot;:1,&quot;sourcePerimeterSpacing&quot;:0,&quot;targetPerimeterSpacing&quot;:0};" vertex="1" parent="bOhfW5nV4HzcesmKSZrR-1">
          <mxGeometry x="1228" y="848" width="130" height="30" as="geometry" />
        </mxCell>
        <mxCell id="bOhfW5nV4HzcesmKSZrR-91" value="&lt;div&gt;Могут стать причиной&amp;nbsp; разрушительных&amp;nbsp;&lt;/div&gt;&lt;div&gt;последствий или&amp;nbsp;&lt;/div&gt;&lt;div&gt;финансовых затрат, причиной преступлений&lt;br&gt;&lt;/div&gt;" style="whiteSpace=wrap;html=1;rounded=1;arcSize=50;align=center;verticalAlign=middle;strokeWidth=1;autosize=1;spacing=4;treeFolding=1;treeMoving=1;newEdgeStyle={&quot;edgeStyle&quot;:&quot;entityRelationEdgeStyle&quot;,&quot;startArrow&quot;:&quot;none&quot;,&quot;endArrow&quot;:&quot;none&quot;,&quot;segment&quot;:10,&quot;curved&quot;:1,&quot;sourcePerimeterSpacing&quot;:0,&quot;targetPerimeterSpacing&quot;:0};" vertex="1" parent="bOhfW5nV4HzcesmKSZrR-1">
          <mxGeometry x="1395" y="170" width="288" height="59" as="geometry" />
        </mxCell>
        <mxCell id="bOhfW5nV4HzcesmKSZrR-92" style="edgeStyle=entityRelationEdgeStyle;rounded=0;orthogonalLoop=1;jettySize=auto;html=1;startArrow=none;endArrow=none;segment=10;curved=1;sourcePerimeterSpacing=0;targetPerimeterSpacing=0;exitX=0.5;exitY=1;exitDx=0;exitDy=0;entryX=0.573;entryY=0.99;entryDx=0;entryDy=0;entryPerimeter=0;" edge="1" parent="bOhfW5nV4HzcesmKSZrR-1" source="bOhfW5nV4HzcesmKSZrR-91" target="bOhfW5nV4HzcesmKSZrR-91">
          <mxGeometry relative="1" as="geometry" />
        </mxCell>
        <mxCell id="bOhfW5nV4HzcesmKSZrR-94" value="&lt;div&gt;Могут привести к значительным&lt;/div&gt;&lt;div&gt;&amp;nbsp;финансовым потерям&lt;/div&gt;&lt;div&gt;&amp;nbsp;компании или юридическим&lt;/div&gt;&lt;div&gt;&amp;nbsp;последствиям&lt;/div&gt;" style="whiteSpace=wrap;html=1;rounded=1;arcSize=50;align=center;verticalAlign=middle;strokeWidth=1;autosize=1;spacing=4;treeFolding=1;treeMoving=1;newEdgeStyle={&quot;edgeStyle&quot;:&quot;entityRelationEdgeStyle&quot;,&quot;startArrow&quot;:&quot;none&quot;,&quot;endArrow&quot;:&quot;none&quot;,&quot;segment&quot;:10,&quot;curved&quot;:1,&quot;sourcePerimeterSpacing&quot;:0,&quot;targetPerimeterSpacing&quot;:0};" vertex="1" parent="bOhfW5nV4HzcesmKSZrR-1">
          <mxGeometry x="1435" y="537" width="218" height="74" as="geometry" />
        </mxCell>
        <mxCell id="bOhfW5nV4HzcesmKSZrR-96" value="&lt;div&gt;Не приведут к последствиям&lt;/div&gt;&lt;div&gt;&amp;nbsp;для компании &lt;br&gt;&lt;/div&gt;&lt;div&gt;или они будут&lt;/div&gt;&lt;div&gt;незначительны&lt;br&gt;&lt;/div&gt;" style="whiteSpace=wrap;html=1;rounded=1;arcSize=50;align=center;verticalAlign=middle;strokeWidth=1;autosize=1;spacing=4;treeFolding=1;treeMoving=1;newEdgeStyle={&quot;edgeStyle&quot;:&quot;entityRelationEdgeStyle&quot;,&quot;startArrow&quot;:&quot;none&quot;,&quot;endArrow&quot;:&quot;none&quot;,&quot;segment&quot;:10,&quot;curved&quot;:1,&quot;sourcePerimeterSpacing&quot;:0,&quot;targetPerimeterSpacing&quot;:0};" vertex="1" parent="bOhfW5nV4HzcesmKSZrR-1">
          <mxGeometry x="1480" y="833.5" width="200" height="74" as="geometry" />
        </mxCell>
      </root>
    </mxGraphModel>
  </diagram>
</mxfile>
